<?xml version="1.0" encoding="utf-8"?>
<!-- Generator: Adobe Illustrator 20.1.0, SVG Export Plug-In . SVG Version: 6.00 Build 0)  -->
<svg version="1.1" id="Layer_1" xmlns="http://www.w3.org/2000/svg" xmlns:xlink="http://www.w3.org/1999/xlink" x="0px" y="0px"
	 viewBox="0 0 300 300" style="enable-background:new 0 0 300 300;" xml:space="preserve">
<style type="text/css">
	.st0{clip-path:url(#SVGID_2_);fill:#F19200;}
	.st1{clip-path:url(#SVGID_2_);fill:#FFFFFF;}
	.st2{clip-path:url(#SVGID_2_);fill:none;stroke:#FFFFFF;stroke-width:6.058;stroke-linecap:round;stroke-linejoin:round;}
	.st3{clip-path:url(#SVGID_2_);fill:#1B1C20;}
</style>
<g>
	<defs>
		<rect id="SVGID_1_" x="-1" width="300" height="300"/>
	</defs>
	<clipPath id="SVGID_2_">
		<use xlink:href="#SVGID_1_"  style="overflow:visible;"/>
	</clipPath>
	<path class="st0" d="M149,300c82.8,0,150-67.2,150-150S231.8,0,149,0S-1,67.2-1,150S66.2,300,149,300"/>
	<path class="st1" d="M84,227.2h136.6c0-38.6-30.6-69.9-68.3-69.9C114.6,157.3,84,188.6,84,227.2"/>
	<path class="st2" d="M84,227.2h136.6c0-38.6-30.6-69.9-68.3-69.9C114.6,157.3,84,188.6,84,227.2z"/>
	<path class="st1" d="M152.3,155.9c23.7,0,43-19.7,43-44.1c0-24.3-19.2-44.1-43-44.1s-43,19.7-43,44.1
		C109.3,136.1,128.6,155.9,152.3,155.9"/>
	<ellipse class="st2" cx="152.3" cy="111.8" rx="43" ry="44.1"/>
	<path class="st3" d="M204.6,205.2c15.2,0,27.6-12.4,27.6-27.6c0-15.2-12.4-27.6-27.6-27.6c-15.2,0-27.6,12.4-27.6,27.6
		C177,192.8,189.4,205.2,204.6,205.2"/>
	<path class="st1" d="M204.6,169.2c3.9,0,7-3.1,7-7s-3.1-7-7-7c-3.9,0-7,3.1-7,7S200.7,169.2,204.6,169.2"/>
	<path class="st1" d="M202.6,171.8c0,0-5,0-5,5V195c0,0,0,5,5,5h4c0,0,5,0,5-5v-18.2c0,0,0-5-5-5H202.6z"/>
</g>
<g>
	<g>
		<defs>
			<rect id="SVGID_3_" width="300" height="300"/>
		</defs>
		<clipPath id="SVGID_4_">
			<use xlink:href="#SVGID_3_"  style="overflow:visible;"/>
		</clipPath>
	</g>
	<g>
		<defs>
			<rect id="SVGID_5_" width="300" height="300"/>
		</defs>
		<clipPath id="SVGID_6_">
			<use xlink:href="#SVGID_5_"  style="overflow:visible;"/>
		</clipPath>
	</g>
</g>
<g>
	<g>
		<defs>
			<rect id="SVGID_7_" width="300" height="300"/>
		</defs>
		<clipPath id="SVGID_8_">
			<use xlink:href="#SVGID_7_"  style="overflow:visible;"/>
		</clipPath>
	</g>
</g>
</svg>
